<?xml version="1.0" encoding="utf-8"?>
<!-- Generator: Adobe Illustrator 15.0.2, SVG Export Plug-In . SVG Version: 6.00 Build 0)  -->
<!DOCTYPE svg PUBLIC "-//W3C//DTD SVG 1.1//EN" "http://www.w3.org/Graphics/SVG/1.1/DTD/svg11.dtd">
<svg version="1.1" id="Layer_1" xmlns="http://www.w3.org/2000/svg" xmlns:xlink="http://www.w3.org/1999/xlink" x="0px" y="0px"
	 width="600px" height="200px" viewBox="0 0 600 200" enable-background="new 0 0 600 200" xml:space="preserve">
<g id="Layer_2">
</g>
<g enable-background="new    ">
	<path fill="#F4F4F4" d="M209.307,72.563c4.074,0,7.098,0.797,9.072,2.388c1.974,1.592,2.96,4.202,2.96,7.831
		c0,1.783-0.287,3.318-0.859,4.607c-0.573,1.289-1.385,2.356-2.435,3.199c-1.051,0.844-2.3,1.473-3.749,1.886
		c-1.449,0.414-3.032,0.621-4.751,0.621H196.32V59.29h22.25v5.062h-16.759v8.212H209.307z M209.594,87.938
		c0.955,0,1.822-0.087,2.603-0.262c0.779-0.175,1.439-0.47,1.981-0.884c0.541-0.413,0.955-0.963,1.241-1.647
		c0.287-0.684,0.43-1.535,0.43-2.555c0-1.814-0.501-3.183-1.504-4.106c-1.003-0.923-2.667-1.385-4.99-1.385h-7.544v10.839H209.594z"
		/>
	<path fill="#F4F4F4" d="M240.582,75.381h-0.096l-1.576,3.629l-7.734,14.086h-5.826V68.362h5.252v13.942l-0.189,4.106l0.094,0.048
		l1.576-3.677l7.545-14.42h5.92v24.733h-5.203V79.344L240.582,75.381z"/>
	<path fill="#F4F4F4" d="M258.678,67.885c1.178,0,2.269,0.159,3.271,0.478c1.003,0.318,1.878,0.764,2.626,1.337
		s1.329,1.273,1.743,2.101c0.413,0.828,0.621,1.767,0.621,2.817c0,1.178-0.271,2.229-0.812,3.151
		c-0.542,0.924-1.227,1.607-2.054,2.053c1.21,0.51,2.156,1.29,2.841,2.34c0.685,1.051,1.027,2.292,1.027,3.725
		c0,1.306-0.271,2.436-0.812,3.39c-0.541,0.955-1.241,1.752-2.101,2.388c-0.859,0.638-1.847,1.115-2.96,1.433
		c-1.115,0.317-2.261,0.478-3.438,0.478c-1.941,0-3.756-0.358-5.443-1.074c-1.688-0.717-2.992-1.902-3.915-3.558l3.581-2.674
		c0.7,0.796,1.456,1.401,2.268,1.814c0.812,0.414,1.822,0.621,3.032,0.621c1.368,0,2.459-0.287,3.271-0.859
		c0.812-0.573,1.218-1.416,1.218-2.531c0-1.209-0.374-2.045-1.122-2.507c-0.748-0.461-1.838-0.692-3.271-0.692h-3.295V77.96h3.247
		c1.114,0,1.997-0.191,2.65-0.573c0.651-0.382,0.979-1.082,0.979-2.102c0-0.827-0.334-1.456-1.003-1.886
		c-0.668-0.43-1.592-0.645-2.77-0.645c-1.114,0-2.045,0.167-2.793,0.501c-0.748,0.335-1.44,0.868-2.077,1.6l-3.151-2.722
		c0.986-1.495,2.236-2.578,3.748-3.246C255.295,68.219,256.927,67.885,258.678,67.885z"/>
	<path fill="#F4F4F4" d="M277.586,82.591v10.505h-5.252V68.362h5.252v9.406h9.072v-9.406h5.205v24.733h-5.205V82.591H277.586z"/>
	<path fill="#F4F4F4" d="M315.354,88.512c-0.478,0.859-1.059,1.6-1.743,2.221c-0.685,0.62-1.416,1.146-2.196,1.575
		s-1.6,0.749-2.459,0.955c-0.859,0.207-1.688,0.311-2.482,0.311c-1.21,0-2.404-0.176-3.581-0.525c-1.179-0.35-2.229-0.883-3.151-1.6
		c-0.924-0.716-1.664-1.6-2.221-2.649c-0.558-1.051-0.836-2.292-0.836-3.725v-8.69c0-1.433,0.278-2.682,0.836-3.748
		c0.557-1.066,1.297-1.949,2.221-2.65c0.923-0.699,1.973-1.225,3.151-1.575c1.177-0.351,2.371-0.525,3.581-0.525
		c1.177,0,2.347,0.175,3.51,0.525c1.161,0.351,2.196,0.876,3.104,1.575c0.907,0.701,1.639,1.584,2.196,2.65
		c0.557,1.066,0.835,2.315,0.835,3.748v6.78h-14.133v1.719c0,0.573,0.127,1.074,0.382,1.504c0.254,0.43,0.58,0.805,0.979,1.122
		c0.397,0.319,0.859,0.558,1.385,0.717s1.074,0.238,1.647,0.238c0.923,0,1.807-0.183,2.65-0.549c0.843-0.365,1.487-1.01,1.934-1.934
		L315.354,88.512z M311.058,76.479c0-0.573-0.128-1.074-0.383-1.504s-0.597-0.796-1.026-1.099c-0.43-0.302-0.915-0.525-1.456-0.668
		c-0.542-0.144-1.099-0.215-1.671-0.215c-0.573,0-1.139,0.071-1.695,0.215c-0.558,0.143-1.051,0.366-1.48,0.668
		c-0.43,0.303-0.772,0.677-1.026,1.122c-0.255,0.446-0.366,0.972-0.334,1.576v2.244h9.072V76.479z"/>
	<path fill="#F4F4F4" d="M319.89,76.384c0-1.433,0.278-2.682,0.836-3.748c0.557-1.066,1.297-1.949,2.221-2.65
		c0.923-0.699,1.965-1.225,3.127-1.575s2.348-0.525,3.558-0.525c0.955,0,1.934,0.119,2.937,0.358
		c1.003,0.238,1.941,0.613,2.817,1.122c0.875,0.509,1.646,1.178,2.315,2.005c0.669,0.828,1.178,1.831,1.528,3.008l-4.775,1.814
		c-0.318-1.113-0.907-1.925-1.767-2.435c-0.859-0.509-1.799-0.764-2.817-0.764c-0.572,0-1.138,0.071-1.694,0.215
		c-0.558,0.143-1.059,0.357-1.505,0.645c-0.445,0.286-0.812,0.637-1.098,1.05c-0.286,0.414-0.43,0.892-0.43,1.433v8.786
		c0,1.082,0.461,1.909,1.385,2.482c0.923,0.573,1.957,0.859,3.104,0.859c1.019,0,1.997-0.254,2.937-0.764
		c0.938-0.509,1.567-1.32,1.886-2.436l4.87,1.814c-0.351,1.179-0.867,2.181-1.552,3.009s-1.464,1.496-2.339,2.005
		c-0.876,0.51-1.823,0.884-2.842,1.122c-1.019,0.239-2.005,0.358-2.96,0.358c-1.21,0-2.396-0.176-3.558-0.525
		s-2.204-0.875-3.127-1.575c-0.924-0.7-1.664-1.584-2.221-2.65c-0.558-1.066-0.836-2.315-0.836-3.748V76.384z"/>
	<path fill="#F4F4F4" d="M356.369,81.684h-13.274v-5.348h13.274V81.684z"/>
	<path fill="#F4F4F4" d="M383.251,68.505h-0.096l-2.435,4.441l-12.605,20.149h-5.969V59.29h5.491v20.961l-0.287,4.536h0.144
		l2.483-4.536l12.844-20.961h5.683v33.806h-5.539V72.946L383.251,68.505z"/>
	<path fill="#F4F4F4" d="M399.724,82.591v10.505h-5.252V68.362h5.252v9.406h9.072v-9.406h5.205v24.733h-5.205V82.591H399.724z"/>
	<path fill="#F4F4F4" d="M424.648,93.096V73.041h-7.163v-4.679h19.577v4.679H429.9v20.055H424.648z"/>
	<path fill="#F4F4F4" d="M458.263,88.512c-0.478,0.859-1.059,1.6-1.743,2.221c-0.685,0.62-1.416,1.146-2.196,1.575
		s-1.6,0.749-2.459,0.955c-0.859,0.207-1.688,0.311-2.482,0.311c-1.21,0-2.404-0.176-3.581-0.525c-1.179-0.35-2.229-0.883-3.151-1.6
		c-0.924-0.716-1.664-1.6-2.221-2.649c-0.558-1.051-0.836-2.292-0.836-3.725v-8.69c0-1.433,0.278-2.682,0.836-3.748
		c0.557-1.066,1.297-1.949,2.221-2.65c0.923-0.699,1.973-1.225,3.151-1.575c1.177-0.351,2.371-0.525,3.581-0.525
		c1.177,0,2.347,0.175,3.51,0.525c1.161,0.351,2.196,0.876,3.104,1.575c0.907,0.701,1.639,1.584,2.196,2.65
		c0.557,1.066,0.835,2.315,0.835,3.748v6.78h-14.133v1.719c0,0.573,0.127,1.074,0.382,1.504c0.254,0.43,0.58,0.805,0.979,1.122
		c0.397,0.319,0.859,0.558,1.385,0.717s1.074,0.238,1.647,0.238c0.923,0,1.807-0.183,2.65-0.549c0.843-0.365,1.487-1.01,1.934-1.934
		L458.263,88.512z M453.966,76.479c0-0.573-0.128-1.074-0.383-1.504s-0.597-0.796-1.026-1.099c-0.43-0.302-0.915-0.525-1.456-0.668
		c-0.542-0.144-1.099-0.215-1.671-0.215c-0.573,0-1.139,0.071-1.695,0.215c-0.558,0.143-1.051,0.366-1.48,0.668
		c-0.43,0.303-0.772,0.677-1.026,1.122c-0.255,0.446-0.366,0.972-0.334,1.576v2.244h9.072V76.479z"/>
	<path fill="#F4F4F4" d="M471.919,73.185l-0.573,7.831c-0.159,2.069-0.374,3.86-0.645,5.371c-0.271,1.513-0.748,2.763-1.433,3.749
		s-1.655,1.727-2.912,2.22c-1.258,0.494-2.953,0.74-5.086,0.74v-4.632c1.146,0,2.037-0.127,2.674-0.382
		c0.637-0.254,1.123-0.74,1.457-1.456c0.334-0.717,0.564-1.703,0.692-2.961c0.127-1.257,0.27-2.872,0.43-4.846l0.764-10.457h16.187
		v24.733h-5.252V73.185H471.919z"/>
	<path fill="#F4F4F4" d="M497.607,73.185l-0.573,7.831c-0.159,2.069-0.374,3.86-0.645,5.371c-0.271,1.513-0.748,2.763-1.433,3.749
		s-1.655,1.727-2.912,2.22c-1.258,0.494-2.953,0.74-5.086,0.74v-4.632c1.146,0,2.037-0.127,2.674-0.382
		c0.637-0.254,1.123-0.74,1.457-1.456c0.334-0.717,0.564-1.703,0.692-2.961c0.127-1.257,0.27-2.872,0.43-4.846l0.764-10.457h16.187
		v24.733h-5.252V73.185H497.607z"/>
	<path fill="#F4F4F4" d="M532.654,88.512c-0.478,0.859-1.059,1.6-1.743,2.221c-0.685,0.62-1.416,1.146-2.196,1.575
		s-1.6,0.749-2.459,0.955c-0.859,0.207-1.688,0.311-2.482,0.311c-1.21,0-2.404-0.176-3.581-0.525c-1.179-0.35-2.229-0.883-3.151-1.6
		c-0.924-0.716-1.664-1.6-2.221-2.649c-0.558-1.051-0.836-2.292-0.836-3.725v-8.69c0-1.433,0.278-2.682,0.836-3.748
		c0.557-1.066,1.297-1.949,2.221-2.65c0.923-0.699,1.973-1.225,3.151-1.575c1.177-0.351,2.371-0.525,3.581-0.525
		c1.177,0,2.347,0.175,3.51,0.525c1.161,0.351,2.196,0.876,3.104,1.575c0.907,0.701,1.639,1.584,2.196,2.65
		c0.557,1.066,0.835,2.315,0.835,3.748v6.78h-14.133v1.719c0,0.573,0.127,1.074,0.382,1.504c0.254,0.43,0.58,0.805,0.979,1.122
		c0.397,0.319,0.859,0.558,1.385,0.717s1.074,0.238,1.647,0.238c0.923,0,1.807-0.183,2.65-0.549c0.843-0.365,1.487-1.01,1.934-1.934
		L532.654,88.512z M528.357,76.479c0-0.573-0.128-1.074-0.383-1.504s-0.597-0.796-1.026-1.099c-0.43-0.302-0.915-0.525-1.456-0.668
		c-0.542-0.144-1.099-0.215-1.671-0.215c-0.573,0-1.139,0.071-1.695,0.215c-0.558,0.143-1.051,0.366-1.48,0.668
		c-0.43,0.303-0.772,0.677-1.026,1.122c-0.255,0.446-0.366,0.972-0.334,1.576v2.244h9.072V76.479z"/>
	<path fill="#F4F4F4" d="M544.925,83.26l-1.767,1.767v8.069h-5.252V68.362h5.252V78.58l9.454-10.218h6.351l-10.457,11.507
		l10.267,13.227h-6.208L544.925,83.26z"/>
	<path fill="#F4F4F4" d="M567.128,93.096V73.041h-7.163v-4.679h19.577v4.679h-7.162v20.055H567.128z"/>
</g>
<path fill="#37D0DB" stroke="#FFFFFF" stroke-width="4" stroke-miterlimit="10" d="M99.486,69.625l0.049-0.048
	c2.769-2.77,6.245-3.724,9.327-2.527c3.066,1.191,4.879,3.95,5.041,7.519c0.055,1.163,0.449,2.113,1.288,2.416
	c0.838,0.307,1.984-0.562,2.584-1.163l10.218-10.215c1.372-1.375,1.514-3.56,0.139-4.936L95.654,28.194
	c-1.375-1.375-3.662-1.336-5.035,0.037l-32.48,32.481c-1.374,1.374-1.233,3.48,0.142,4.854l9.934,9.936
	c3.363,3.362,1.271,6.951-2.4,7.18c-6.041,0.377-9.478,6.85-4.539,12.217c5.37,4.94,11.849,1.494,12.226-4.545
	c0.229-3.671,3.812-5.753,7.175-2.391L90.76,98.047c1.375,1.375,3.379,1.413,4.752,0.038l10.285-10.282
	c0.598-0.599,1.469-1.656,1.169-2.483c-0.293-0.804-1.081-1.065-2.23-1.121c-3.582-0.167-6.517-2.082-7.721-5.181
	c-1.204-3.099-0.32-6.601,2.44-9.362L99.486,69.625z"/>
<path fill="#D4DC4E" stroke="#FFFFFF" stroke-width="4" stroke-miterlimit="10" d="M125.922,109.059l0.047,0.047
	c2.77,2.771,3.724,6.246,2.529,9.328c-1.192,3.066-3.951,4.879-7.522,5.041c-1.16,0.055-2.112,0.451-2.414,1.286
	c-0.308,0.841,0.563,1.984,1.164,2.585l10.214,10.219c1.376,1.373,3.56,1.517,4.932,0.144l32.481-32.479
	c1.376-1.375,1.338-3.662-0.037-5.037L134.835,67.71c-1.375-1.372-3.482-1.232-4.854,0.142l-9.936,9.936
	c-3.363,3.363-6.954,1.271-7.183-2.399c-0.375-6.043-6.848-9.479-12.215-4.54c-4.939,5.37-1.494,11.848,4.548,12.226
	c3.668,0.229,5.753,3.812,2.391,7.174L97.5,100.331c-1.375,1.374-1.415,3.378-0.039,4.751l10.283,10.282
	c0.6,0.601,1.655,1.474,2.48,1.173c0.807-0.293,1.069-1.083,1.121-2.23c0.167-3.582,2.084-6.518,5.183-7.722
	c3.099-1.202,6.601-0.319,9.362,2.438L125.922,109.059z"/>
<path fill="#01AEDD" stroke="#FFFFFF" stroke-width="4" stroke-miterlimit="10" d="M60.286,96.356l-0.048-0.049
	c-2.768-2.768-3.724-6.243-2.527-9.327c1.193-3.066,3.951-4.877,7.519-5.042c1.163-0.053,2.114-0.449,2.418-1.285
	c0.306-0.842-0.564-1.985-1.164-2.585L56.267,67.851c-1.374-1.373-3.558-1.515-4.932-0.143l-32.48,32.481
	c-1.374,1.374-1.335,3.661,0.04,5.036l32.48,32.479c1.374,1.374,3.48,1.233,4.854-0.142l9.936-9.938
	c3.363-3.361,6.953-1.271,7.181,2.398c0.377,6.043,6.85,9.479,12.216,4.541c4.938-5.371,1.495-11.852-4.546-12.228
	c-3.669-0.229-5.753-3.812-2.391-7.176l10.083-10.085c1.375-1.373,1.414-3.376,0.04-4.751l-10.283-10.28
	c-0.599-0.599-1.654-1.47-2.482-1.17c-0.804,0.293-1.066,1.083-1.121,2.229c-0.167,3.583-2.082,6.518-5.179,7.724
	c-3.1,1.202-6.604,0.317-9.363-2.44L60.286,96.356z"/>
<path fill="#93C752" stroke="#FFFFFF" stroke-width="4" stroke-miterlimit="10" d="M86.786,135.707l-0.05,0.05
	c-2.768,2.771-6.243,3.726-9.327,2.526c-3.066-1.189-4.877-3.95-5.041-7.52c-0.054-1.16-0.449-2.111-1.286-2.418
	c-0.842-0.309-1.985,0.563-2.587,1.163L58.28,139.727c-1.375,1.373-1.516,3.562-0.144,4.936l32.482,32.479
	c1.373,1.373,3.662,1.334,5.035-0.041l32.479-32.478c1.375-1.376,1.236-3.481-0.139-4.856l-9.937-9.934
	c-3.362-3.364-1.271-6.954,2.399-7.184c6.043-0.379,9.478-6.852,4.541-12.217c-5.37-4.938-11.85-1.494-12.227,4.547
	c-0.228,3.668-3.81,5.754-7.175,2.393l-10.083-10.084c-1.375-1.376-3.378-1.417-4.753-0.04l-10.284,10.282
	c-0.597,0.599-1.47,1.654-1.168,2.479c0.291,0.806,1.081,1.066,2.228,1.12c3.583,0.168,6.518,2.082,7.722,5.184
	c1.206,3.099,0.32,6.604-2.439,9.359L86.786,135.707z"/>
<g enable-background="new    ">
	<path fill="#F4F4F4" d="M196.633,119.581c0-0.76,0.157-1.423,0.47-1.99c0.313-0.566,0.727-1.04,1.24-1.42s1.097-0.667,1.75-0.86
		c0.653-0.192,1.327-0.29,2.02-0.29c0.52,0,1.033,0.067,1.54,0.2c0.506,0.134,0.99,0.334,1.45,0.601s0.883,0.603,1.27,1.01
		c0.386,0.406,0.707,0.883,0.96,1.43l-2.06,1.021c-0.347-0.641-0.813-1.123-1.4-1.45c-0.587-0.327-1.194-0.49-1.82-0.49
		c-0.387,0-0.767,0.047-1.14,0.14c-0.374,0.094-0.707,0.233-1,0.42c-0.293,0.188-0.53,0.421-0.71,0.7
		c-0.18,0.28-0.27,0.607-0.27,0.98v5.439c0,0.374,0.09,0.7,0.27,0.98c0.18,0.28,0.417,0.514,0.71,0.7
		c0.293,0.187,0.626,0.326,1,0.42c0.373,0.093,0.753,0.14,1.14,0.14c0.64,0,1.253-0.16,1.84-0.479c0.586-0.32,1.046-0.801,1.38-1.44
		l2.06,0.96c-0.267,0.547-0.594,1.027-0.98,1.44c-0.387,0.413-0.81,0.757-1.27,1.029c-0.46,0.273-0.95,0.478-1.47,0.61
		s-1.04,0.2-1.56,0.2c-0.68,0-1.343-0.094-1.99-0.28c-0.647-0.187-1.224-0.47-1.73-0.85c-0.507-0.38-0.917-0.856-1.23-1.431
		c-0.313-0.573-0.47-1.239-0.47-2V119.581z"/>
	<path fill="#F4F4F4" d="M218.874,119.081h-0.04l-1.02,1.859l-5.28,8.44h-2.5v-14.16h2.3v8.78l-0.12,1.899h0.06l1.04-1.899
		l5.38-8.78h2.38v14.16h-2.32v-8.44L218.874,119.081z"/>
	<path fill="#F4F4F4" d="M224.373,119.581c0-0.76,0.157-1.423,0.47-1.99c0.313-0.566,0.727-1.04,1.24-1.42
		c0.514-0.38,1.097-0.667,1.75-0.86c0.653-0.192,1.326-0.29,2.021-0.29c0.52,0,1.032,0.067,1.54,0.2
		c0.506,0.134,0.989,0.334,1.449,0.601s0.884,0.603,1.271,1.01c0.387,0.406,0.706,0.883,0.96,1.43l-2.061,1.021
		c-0.347-0.641-0.813-1.123-1.399-1.45c-0.587-0.327-1.193-0.49-1.82-0.49c-0.387,0-0.767,0.047-1.14,0.14
		c-0.374,0.094-0.707,0.233-1,0.42c-0.294,0.188-0.53,0.421-0.71,0.7c-0.181,0.28-0.271,0.607-0.271,0.98v5.439
		c0,0.374,0.09,0.7,0.271,0.98c0.18,0.28,0.416,0.514,0.71,0.7c0.293,0.187,0.626,0.326,1,0.42c0.373,0.093,0.753,0.14,1.14,0.14
		c0.64,0,1.253-0.16,1.84-0.479c0.587-0.32,1.047-0.801,1.38-1.44l2.061,0.96c-0.267,0.547-0.594,1.027-0.98,1.44
		s-0.81,0.757-1.27,1.029c-0.46,0.273-0.95,0.478-1.47,0.61c-0.521,0.133-1.04,0.2-1.561,0.2c-0.68,0-1.344-0.094-1.99-0.28
		s-1.223-0.47-1.729-0.85s-0.917-0.856-1.23-1.431c-0.313-0.573-0.47-1.239-0.47-2V119.581z"/>
	<path fill="#F4F4F4" d="M240.992,129.381v-11.94h-4.279v-2.239h10.88v2.239h-4.28v11.94H240.992z"/>
	<path fill="#F4F4F4" d="M252.532,121.141h6.46v2.32h-6.46v3.6h7.02v2.32h-9.34v-14.18h9.34v2.319h-7.02V121.141z"/>
	<path fill="#F4F4F4" d="M262.731,115.221h2.58l3.9,9.2l3.939-9.2h2.601v14.16h-2.32v-6.5l0.44-3.84h-0.2l-1.2,3.34l-2.32,5.04
		h-1.819l-2.341-5.04l-1.18-3.4h-0.2l0.42,3.92v6.48h-2.3V115.221z"/>
	<path fill="#F4F4F4" d="M284.832,120.4c1.68,0,2.937,0.367,3.77,1.101s1.25,1.867,1.25,3.399c0,0.747-0.12,1.397-0.359,1.95
		c-0.24,0.554-0.577,1.021-1.011,1.4c-0.433,0.38-0.953,0.663-1.56,0.85c-0.607,0.188-1.271,0.28-1.99,0.28h-5.5v-14.16h2.3v5.18
		H284.832z M284.952,127.221c0.812,0,1.449-0.18,1.909-0.54c0.461-0.359,0.69-0.967,0.69-1.819c0-0.801-0.21-1.414-0.63-1.841
		c-0.42-0.426-1.11-0.64-2.07-0.64h-3.12v4.84H284.952z M293.952,115.221v14.16h-2.28v-14.16H293.952z"/>
	<path fill="#F4F4F4" d="M313.911,129.381h-2.42l-1.38-3.68h-5.08l-1.28,3.68h-2.479l5.1-14.16h2.42L313.911,129.381z
		 M307.531,117.561l-0.58,2.28l-1.141,3.54h3.5l-1.159-3.58l-0.54-2.24H307.531z"/>
	<path fill="#F4F4F4" d="M326.051,119.121c0,0.479-0.101,0.97-0.3,1.47c-0.2,0.5-0.534,0.903-1,1.21
		c0.386,0.16,0.703,0.36,0.949,0.6c0.247,0.24,0.443,0.508,0.591,0.801c0.146,0.293,0.25,0.604,0.31,0.93
		c0.06,0.327,0.09,0.67,0.09,1.03c-0.014,0.786-0.149,1.446-0.41,1.979c-0.26,0.533-0.609,0.967-1.05,1.3
		c-0.439,0.334-0.96,0.574-1.56,0.721c-0.601,0.146-1.247,0.22-1.94,0.22h-5.5v-14.16h5.521c0.586,0,1.14,0.08,1.659,0.24
		c0.521,0.16,0.977,0.403,1.37,0.729c0.394,0.327,0.703,0.733,0.931,1.221C325.938,117.897,326.051,118.468,326.051,119.121z
		 M321.751,120.861c0.586,0,1.069-0.141,1.449-0.421c0.381-0.279,0.57-0.746,0.57-1.399c0-0.547-0.196-0.95-0.59-1.21
		s-0.87-0.391-1.43-0.391h-3.2v3.421H321.751z M321.751,127.161c0.76,0.026,1.386-0.12,1.88-0.44c0.493-0.32,0.74-0.866,0.74-1.64
		s-0.237-1.327-0.711-1.66c-0.473-0.333-1.109-0.493-1.909-0.48h-3.2v4.221H321.751z"/>
	<path fill="#F4F4F4" d="M332.63,129.381v-11.94h-4.279v-2.239h10.88v2.239h-4.28v11.94H332.63z"/>
	<path fill="#F4F4F4" d="M341.251,119.601c0-0.76,0.163-1.427,0.49-2c0.326-0.573,0.757-1.05,1.29-1.43s1.143-0.667,1.83-0.86
		c0.687-0.192,1.39-0.29,2.109-0.29c0.721,0,1.424,0.098,2.11,0.29c0.687,0.193,1.3,0.48,1.84,0.86s0.974,0.856,1.3,1.43
		c0.327,0.573,0.49,1.24,0.49,2v5.38c0,0.761-0.163,1.431-0.49,2.011c-0.326,0.58-0.76,1.06-1.3,1.439s-1.153,0.667-1.84,0.86
		s-1.39,0.29-2.11,0.29c-0.72,0-1.42-0.097-2.1-0.29s-1.29-0.48-1.83-0.86s-0.974-0.859-1.3-1.439c-0.327-0.58-0.49-1.25-0.49-2.011
		V119.601z M343.531,124.98c0,0.4,0.1,0.75,0.3,1.051c0.2,0.3,0.46,0.55,0.78,0.75c0.319,0.199,0.687,0.35,1.1,0.449
		c0.413,0.101,0.833,0.15,1.26,0.15s0.847-0.05,1.261-0.15c0.413-0.1,0.779-0.25,1.1-0.449c0.32-0.2,0.58-0.45,0.78-0.75
		c0.199-0.301,0.3-0.65,0.3-1.051v-5.359c0-0.413-0.101-0.773-0.3-1.08c-0.2-0.307-0.464-0.561-0.79-0.76
		c-0.327-0.2-0.697-0.347-1.11-0.44c-0.413-0.093-0.833-0.14-1.26-0.14s-0.847,0.05-1.26,0.149c-0.414,0.101-0.78,0.25-1.101,0.45
		c-0.319,0.2-0.577,0.45-0.77,0.75c-0.193,0.3-0.29,0.657-0.29,1.07V124.98z"/>
	<path fill="#F4F4F4" d="M355.99,115.221h2.58l3.9,9.2l3.939-9.2h2.601v14.16h-2.32v-6.5l0.44-3.84h-0.2l-1.2,3.34l-2.32,5.04
		h-1.819l-2.341-5.04l-1.18-3.4h-0.2l0.42,3.92v6.48h-2.3V115.221z"/>
	<path fill="#F4F4F4" d="M383.972,129.381h-2.42l-1.38-3.68h-5.08l-1.28,3.68h-2.479l5.1-14.16h2.42L383.972,129.381z
		 M377.592,117.561l-0.58,2.28l-1.141,3.54h3.5l-1.159-3.58l-0.54-2.24H377.592z"/>
	<path fill="#F4F4F4" d="M387.99,129.381v-11.94h-4.279v-2.239h10.88v2.239h-4.28v11.94H387.99z"/>
	<path fill="#F4F4F4" d="M406.05,119.081h-0.04l-1.02,1.859l-5.28,8.44h-2.5v-14.16h2.3v8.78l-0.12,1.899h0.061l1.04-1.899
		l5.38-8.78h2.38v14.16h-2.32v-8.44L406.05,119.081z"/>
	<path fill="#F4F4F4" d="M416.01,115.021c0.72,0,1.356,0.098,1.91,0.29c0.553,0.193,1.013,0.467,1.38,0.82
		c0.366,0.354,0.644,0.773,0.83,1.26c0.187,0.487,0.28,1.023,0.28,1.61c0,0.573-0.124,1.11-0.37,1.61
		c-0.247,0.5-0.604,0.903-1.07,1.21c0.707,0.347,1.224,0.823,1.55,1.43c0.327,0.606,0.49,1.276,0.49,2.01
		c-0.014,0.733-0.146,1.37-0.4,1.91c-0.253,0.54-0.609,0.99-1.069,1.35c-0.46,0.36-1.004,0.627-1.63,0.801
		c-0.627,0.173-1.313,0.26-2.061,0.26c-1.08,0-2.06-0.217-2.939-0.65c-0.88-0.433-1.587-1.109-2.12-2.03l1.8-1.119
		c0.387,0.56,0.854,0.973,1.4,1.239c0.546,0.268,1.159,0.4,1.84,0.4c0.853,0,1.546-0.17,2.08-0.51c0.533-0.34,0.8-0.917,0.8-1.73
		c0-0.826-0.247-1.416-0.74-1.77s-1.16-0.53-2-0.53h-1.979v-1.86h1.96c0.666,0,1.206-0.149,1.62-0.449
		c0.413-0.301,0.619-0.79,0.619-1.471c0-0.64-0.21-1.126-0.63-1.46c-0.42-0.333-0.989-0.5-1.71-0.5c-0.653,0-1.217,0.113-1.689,0.34
		c-0.474,0.228-0.884,0.521-1.23,0.881l-1.56-1.101c0.56-0.786,1.223-1.356,1.989-1.71S415.01,115.021,416.01,115.021z"/>
	<path fill="#F4F4F4" d="M435.091,129.381h-2.42l-1.38-3.68h-5.08l-1.28,3.68h-2.479l5.1-14.16h2.42L435.091,129.381z
		 M428.711,117.561l-0.58,2.28l-1.141,3.54h3.5l-1.159-3.58l-0.54-2.24H428.711z"/>
	<path fill="#F4F4F4" d="M447.13,132.001v-2.62h-9.739v-14.16h2.3v11.92h5.96v-11.92h2.32v11.92h1.399v4.86H447.13z"/>
	<path fill="#F4F4F4" d="M461.13,119.081h-0.04l-1.02,1.859l-5.28,8.44h-2.5v-14.16h2.3v8.78l-0.12,1.899h0.061l1.04-1.899
		l5.38-8.78h2.38v14.16h-2.32v-8.44L461.13,119.081z"/>
	<path fill="#F4F4F4" d="M475.85,119.081h-0.04l-1.02,1.859l-5.28,8.44h-2.5v-14.16h2.3v8.78l-0.12,1.899h0.061l1.04-1.899
		l5.38-8.78h2.38v14.16h-2.32v-8.44L475.85,119.081z"/>
	<path fill="#F4F4F4" d="M492.17,120.781c1.706,0,2.973,0.333,3.8,1c0.826,0.666,1.24,1.76,1.24,3.279
		c0,0.747-0.12,1.391-0.36,1.931s-0.58,0.986-1.02,1.34c-0.44,0.354-0.964,0.616-1.57,0.79c-0.607,0.173-1.271,0.26-1.99,0.26h-5.54
		v-14.16h9.32v2.12h-7.021v3.44H492.17z M492.29,127.221c0.399,0,0.763-0.036,1.09-0.109c0.326-0.073,0.603-0.197,0.83-0.37
		c0.227-0.174,0.399-0.403,0.52-0.69c0.12-0.286,0.18-0.643,0.18-1.07c0-0.76-0.21-1.333-0.63-1.72s-1.116-0.58-2.09-0.58h-3.16
		v4.54H492.29z"/>
	<path fill="#F4F4F4" d="M508.909,119.081h-0.04l-1.02,1.859l-5.28,8.44h-2.5v-14.16h2.3v8.78l-0.12,1.899h0.061l1.04-1.899
		l5.38-8.78h2.38v14.16h-2.32v-8.44L508.909,119.081z"/>
	<path fill="#F4F4F4" d="M518.869,115.021c0.72,0,1.356,0.098,1.91,0.29c0.553,0.193,1.013,0.467,1.38,0.82
		c0.366,0.354,0.644,0.773,0.83,1.26c0.187,0.487,0.28,1.023,0.28,1.61c0,0.573-0.124,1.11-0.37,1.61
		c-0.247,0.5-0.604,0.903-1.07,1.21c0.707,0.347,1.224,0.823,1.55,1.43c0.327,0.606,0.49,1.276,0.49,2.01
		c-0.014,0.733-0.146,1.37-0.4,1.91c-0.253,0.54-0.609,0.99-1.069,1.35c-0.46,0.36-1.004,0.627-1.63,0.801
		c-0.627,0.173-1.313,0.26-2.061,0.26c-1.08,0-2.06-0.217-2.939-0.65c-0.88-0.433-1.587-1.109-2.12-2.03l1.8-1.119
		c0.387,0.56,0.854,0.973,1.4,1.239c0.546,0.268,1.159,0.4,1.84,0.4c0.853,0,1.546-0.17,2.08-0.51c0.533-0.34,0.8-0.917,0.8-1.73
		c0-0.826-0.247-1.416-0.74-1.77s-1.16-0.53-2-0.53h-1.979v-1.86h1.96c0.666,0,1.206-0.149,1.62-0.449
		c0.413-0.301,0.619-0.79,0.619-1.471c0-0.64-0.21-1.126-0.63-1.46c-0.42-0.333-0.989-0.5-1.71-0.5c-0.653,0-1.217,0.113-1.689,0.34
		c-0.474,0.228-0.884,0.521-1.23,0.881l-1.56-1.101c0.56-0.786,1.223-1.356,1.989-1.71S517.869,115.021,518.869,115.021z"/>
	<path fill="#F4F4F4" d="M529.229,129.381h-2.32v-14.16h2.32v5.94h6.3v-5.94h2.32v14.16h-2.32v-5.92h-6.3V129.381z"/>
	<path fill="#F4F4F4" d="M543.85,121.141h6.46v2.32h-6.46v3.6h7.02v2.32h-9.34v-14.18h9.34v2.319h-7.02V121.141z"/>
	<path fill="#F4F4F4" d="M553.549,119.581c0-0.76,0.156-1.423,0.47-1.99c0.313-0.566,0.727-1.04,1.24-1.42s1.097-0.667,1.75-0.86
		c0.653-0.192,1.326-0.29,2.021-0.29c0.52,0,1.032,0.067,1.54,0.2c0.506,0.134,0.989,0.334,1.449,0.601s0.884,0.603,1.271,1.01
		c0.387,0.406,0.706,0.883,0.96,1.43l-2.061,1.021c-0.347-0.641-0.813-1.123-1.399-1.45c-0.587-0.327-1.193-0.49-1.82-0.49
		c-0.387,0-0.767,0.047-1.14,0.14c-0.374,0.094-0.707,0.233-1,0.42c-0.294,0.188-0.53,0.421-0.71,0.7
		c-0.181,0.28-0.271,0.607-0.271,0.98v5.439c0,0.374,0.09,0.7,0.271,0.98c0.18,0.28,0.416,0.514,0.71,0.7
		c0.293,0.187,0.626,0.326,1,0.42c0.373,0.093,0.753,0.14,1.14,0.14c0.64,0,1.253-0.16,1.84-0.479c0.587-0.32,1.047-0.801,1.38-1.44
		l2.061,0.96c-0.267,0.547-0.594,1.027-0.98,1.44s-0.81,0.757-1.27,1.029c-0.46,0.273-0.95,0.478-1.47,0.61
		c-0.521,0.133-1.04,0.2-1.561,0.2c-0.68,0-1.344-0.094-1.99-0.28s-1.223-0.47-1.729-0.85s-0.917-0.856-1.23-1.431
		c-0.313-0.573-0.47-1.239-0.47-2V119.581z"/>
	<path fill="#F4F4F4" d="M578.229,129.381h-2.42l-1.38-3.68h-5.08l-1.28,3.68h-2.479l5.1-14.16h2.42L578.229,129.381z
		 M571.849,117.561l-0.58,2.28l-1.141,3.54h3.5l-1.159-3.58l-0.54-2.24H571.849z"/>
</g>
</svg>
